<svg id="Layer_1" data-name="Layer 1" xmlns="http://www.w3.org/2000/svg" viewBox="0 0 1043.91 214.78"><defs><style>.cls-1{fill:#006aff;}.cls-2{fill:#fff;}</style></defs><path class="cls-1" d="M97.62,53.73H46.06A33.56,33.56,0,0,0,12.5,87.29V98.36H9.24A9.24,9.24,0,0,0,0,107.6v21.76a9.24,9.24,0,0,0,9.24,9.23H12.5v7.65a21.58,21.58,0,0,0,21.58,21.58h70.15a13.43,13.43,0,0,0,13.43-13.43V73.77A20,20,0,0,0,97.62,53.73Z"/><path class="cls-1" d="M208.77,59.52c-7.24-3.84-15.82-5.79-25.48-5.79a47.67,47.67,0,0,0-14.51,2,24.64,24.64,0,0,0-3,1.2c.36-1.14.66-2.26.92-3.37a53.56,53.56,0,0,0,1.33-12V19c0-6.11-1.5-10.84-4.46-14S156.06,0,150.29,0,140,1.65,136.9,4.91s-4.53,7.94-4.53,14.06V151.18c0,5.39,1.72,9.59,5.1,12.46s7.65,4.18,13,4.18c5.57,0,9.88-1.42,12.81-4.22s4.47-7,4.47-12.42v-49.5c0-5.85,1.29-10.32,3.84-13.3s5.9-4.32,10.4-4.32c4.66,0,8.18,1.39,10.74,4.25s3.92,7.4,3.92,13.37v49.5c0,5.39,1.72,9.59,5.1,12.46s7.65,4.18,13,4.18c5.57,0,9.89-1.42,12.82-4.22s4.46-7,4.46-12.42V100.41c0-9.43-2.07-17.72-6.16-24.63A43,43,0,0,0,208.77,59.52Z"/><path class="cls-1" d="M264.5,53.73c-6.19,0-10.76,1.55-13.56,4.61s-4.14,7.12-4.14,12.25v80.59c0,5.55,1.73,9.78,5.13,12.59s7.63,4,13,4c5.57,0,9.88-1.42,12.81-4.22s4.46-7,4.46-12.42V70.59c0-5.13-1.39-9.25-4.14-12.25S270.7,53.73,264.5,53.73Z"/><path class="cls-1" d="M264.5,0a20.64,20.64,0,0,0-14.82,5.77,19.54,19.54,0,0,0-6.05,14.68,19.1,19.1,0,0,0,6,14.27,22.1,22.1,0,0,0,29.78,0,19.27,19.27,0,0,0,5.93-14.25,19.78,19.78,0,0,0-5.93-14.67A20.61,20.61,0,0,0,264.5,0Z"/><path class="cls-1" d="M410.24,53.73c-16.55,0-28.48,5.48-35.54,16.31-7.06-10.83-19-16.31-35.54-16.31-13.49,0-24,4-31.33,12s-10.91,19.51-10.91,34.46V151c0,5.48,1.54,9.71,4.58,12.58s7.42,4.27,13.12,4.27,10.12-1.43,13.12-4.27,4.59-7.1,4.59-12.58V101.89c0-7.65,1.28-17.83,12.33-17.83,5.48,0,12.76,1.85,12.76,17.83v48.23c0,5.47,1.5,9.69,4.45,12.56s7.25,4.3,12.83,4.3,9.89-1.45,12.83-4.3,4.45-7.09,4.45-12.56V101.89c0-7.65,1.32-17.83,12.76-17.83,4.29,0,7.31,1.23,9.24,3.77,2,2.73,3.09,7.46,3.09,14.06V151c0,5.48,1.54,9.71,4.59,12.58s7.41,4.27,13.11,4.27,10.12-1.43,13.12-4.27,4.59-7.1,4.59-12.58V100.2c0-15-3.67-26.54-10.91-34.46S423.73,53.73,410.24,53.73Z"/><path class="cls-1" d="M517.9,52.88c-15.89,0-28.47,5-37.38,15S467.2,92.75,467.2,112.47v83.34c0,6.12,1.52,10.86,4.53,14.07s7.55,4.9,13.38,4.9c5.46,0,9.66-1.67,12.51-5s4.14-7.91,4.14-14V183.54c0-5.52-.11-10.13-.32-13.68-.19-3.12-.49-6-.9-8.48a28,28,0,0,0,5.24,3.06c5,2.24,11.45,3.38,19.1,3.38a50.54,50.54,0,0,0,23.57-5.35c6.93-3.62,12.42-9.51,16.31-17.51,3.81-7.85,5.74-18.42,5.74-31.43,0-19.58-4.73-34.73-14.07-45S534.06,52.88,517.9,52.88Zm17.84,57.9c0,10.93-1.5,18.35-4.44,22s-6.74,5.31-11.92,5.31-9.08-1.74-11.92-5.31-4.43-11.1-4.43-22,1.49-18.36,4.43-22,6.74-5.31,11.92-5.31,9.07,1.74,11.92,5.31S535.74,99.84,535.74,110.78Z"/><path class="cls-1" d="M623.7,53.73c-11.39,0-19.56,1.45-25,4.43-5.83,3.2-8.79,8.24-8.79,15,0,5,1.55,8.47,4.59,10.27,2.63,1.57,6.12,2.36,10.36,2.36a37.28,37.28,0,0,0,7.71-.69c1.9-.41,4-.79,6.31-1.14a58.68,58.68,0,0,1,8.41-.5,15.57,15.57,0,0,1,9.72,3c2.07,1.55,3.61,4.42,4.59,8.53-18.85-1.25-33.55.85-43.71,6.24C586.71,107.13,581,116.83,581,130c0,11.15,4.28,20.37,12.74,27.39s19.94,10.4,34.57,10.4c17.8,0,30.52-4.84,37.82-14.4,7.15-9.35,10.77-23.91,10.77-43.28,0-16.88-4.4-30.62-13.07-40.84S641.58,53.73,623.7,53.73Zm6.56,85.88c-12.39,0-13.82-5.47-13.82-9.58,0-2.52.42-6.07,4-7.83,2.23-1.09,7.21-2.39,18.27-2.39a17.08,17.08,0,0,0,3.4-.36A83.74,83.74,0,0,1,640.44,132c-.75,3.11-1.88,5.23-3.27,6.12C635.61,139.1,633.28,139.61,630.26,139.61Z"/><path class="cls-1" d="M775.23,66.22c-9.11-8.29-21.23-12.49-36-12.49s-26.94,4.2-36,12.49-13.82,19.78-13.82,34V151c0,5.48,1.54,9.71,4.58,12.58s7.42,4.27,13.12,4.27,10.12-1.43,13.12-4.27,4.59-7.1,4.59-12.58V101.89c0-6,1.29-10.53,3.84-13.51s6-4.32,10.61-4.32,8.11,1.41,10.6,4.32,3.85,7.52,3.85,13.51V151c0,5.48,1.54,9.71,4.58,12.58s7.42,4.27,13.12,4.27,10.12-1.43,13.12-4.27S789,156.45,789,151V100.2C789,86,784.39,74.57,775.23,66.22Z"/><path class="cls-1" d="M883.71,139.38c-2.83-2.65-7-4-12.32-4H844a25,25,0,0,0,2.21-2.94l34.46-51.38.07-.11A16.15,16.15,0,0,0,883,72.49a17.4,17.4,0,0,0-4.44-12,14.69,14.69,0,0,0-11.35-5H814.91c-5.34,0-9.48,1.3-12.3,3.87s-4.35,6.5-4.35,11.51,1.47,8.87,4.35,11.5,7,3.87,12.3,3.87h22.9c-.71.93-1.49,2.06-2.35,3.39l-32.58,51,0,.06a16.18,16.18,0,0,0-2.26,8.46,18.21,18.21,0,0,0,4,11.94,13.33,13.33,0,0,0,10.69,5.13h56.06c5.32,0,9.44-1.26,12.26-3.73s4.38-6.34,4.38-11.22C888,146.05,886.58,142.08,883.71,139.38Z"/><path class="cls-1" d="M916.22,0C910,0,905.35,1.81,902.54,5.39c-2.67,3.39-4,8-4,13.58V151.18c0,5.39,1.72,9.59,5.1,12.46s7.65,4.18,13,4.18c5.57,0,9.88-1.42,12.81-4.22s4.46-7,4.46-12.42V19c0-5.62-1.35-10.19-4-13.58C927.1,1.81,922.49,0,916.22,0Z"/><path class="cls-1" d="M1033.18,138.16a20.24,20.24,0,0,0-10.36-2.36,37.38,37.38,0,0,0-7.58.69c-2,.42-4.17.84-6.41,1.26a48.27,48.27,0,0,1-8.43.59c-5.94,0-10-1-12.16-3a16.65,16.65,0,0,1-3.9-6h8.87c16.52,0,29.17-3,37.59-8.9,8.7-6.11,13.11-15.33,13.11-27.41,0-8.24-2.07-15.37-6.16-21.2a39.46,39.46,0,0,0-16.9-13.43,60.16,60.16,0,0,0-24.26-4.65c-15.13,0-27.39,4.55-36.43,13.51S946.53,90.94,946.53,111c0,10.85,1.73,20.63,5.15,29.06a41.29,41.29,0,0,0,18,20.46c8.31,4.85,19.87,7.31,34.35,7.31,11.38,0,19.56-1.45,25-4.43,5.83-3.2,8.79-8.24,8.79-15C1037.78,143.43,1036.23,140,1033.18,138.16ZM986,87.41a11.6,11.6,0,0,1,10.22-5.47,12.94,12.94,0,0,1,9.49,3.63c2.48,2.43,3.69,5.9,3.69,10.61,0,4.34-1.94,5.83-3.41,6.58-1.93,1-6.29,2.16-16.11,2.16a23.39,23.39,0,0,0-7.38.88L982,106C982.38,97,983.7,90.74,986,87.41Z"/><path class="cls-2" d="M100,98.36H47.39a7.8,7.8,0,0,0-7.8,7.8V125a7.8,7.8,0,0,0,7.8,7.8h7.69v14.5a7.81,7.81,0,0,0,7.8,7.81H88.15a7.81,7.81,0,0,0,7.8-7.81v-14.5h4a7.8,7.8,0,0,0,7.8-7.8V106.16A7.8,7.8,0,0,0,100,98.36Z"/><rect class="cls-2" x="8.86" y="109.08" width="3.64" height="18.78" rx="1.82"/><circle class="cls-1" cx="66.24" cy="110.78" r="3.1"/><circle class="cls-1" cx="92.6" cy="110.78" r="3.1"/></svg>