<svg id="Layer_1" data-name="Layer 1" xmlns="http://www.w3.org/2000/svg" viewBox="0 0 181.38 175.89"><defs><style>.cls-1{fill:#3c7cf3;}.cls-2{fill:#fff;}</style></defs><path class="cls-1" d="M150.49,0H71A51.75,51.75,0,0,0,19.26,51.75v17h-5A14.25,14.25,0,0,0,0,83v33.55a14.24,14.24,0,0,0,14.24,14.24h5v11.78a33.29,33.29,0,0,0,33.29,33.28H160.68a20.7,20.7,0,0,0,20.7-20.7V30.9A30.89,30.89,0,0,0,150.49,0Z"/><path class="cls-2" d="M154.11,68.8H73.06a12,12,0,0,0-12,12v29a12,12,0,0,0,12,12H84.91v22.36a12,12,0,0,0,12,12h38.95a12,12,0,0,0,12-12V121.85h6.19a12,12,0,0,0,12-12v-29A12,12,0,0,0,154.11,68.8Z"/><rect class="cls-2" x="13.66" y="85.34" width="5.61" height="28.96" rx="2.8"/><circle class="cls-1" cx="102.13" cy="87.95" r="4.78"/><circle class="cls-1" cx="142.75" cy="87.95" r="4.78"/></svg>