<?xml version="1.0" encoding="utf-8"?>
<!-- Generator: Adobe Illustrator 24.1.1, SVG Export Plug-In . SVG Version: 6.00 Build 0)  -->
<svg version="1.1" id="Layer_1" xmlns="http://www.w3.org/2000/svg" xmlns:xlink="http://www.w3.org/1999/xlink" x="0px" y="0px"
	 viewBox="0 0 246.6 100" style="enable-background:new 0 0 246.6 100;" xml:space="preserve">
<style type="text/css">
	.st0{fill:#FFFFFF;}
	.st1{fill:#FFB1AD;}
</style>
<path d="M63,45.9c0.6,17.9,0.7,39.6,0.7,39.6c1.2,0.1,2.5,0.1,3.7,0.2c6.7,0.4,13.4,1,20.1,1.8l3.7,0.4c4.5,0.6,9.1,1.2,13.6,1.8
	c1.2,0.2,2.5,0.4,3.7,0.5c3.6,0.5,7.2,1.1,10.9,1.7l11.2,1.7c3.6,0.6,7.2,1.1,10.9,1.6l3.7,0.5c32.8,4.6,65.5,7.1,98.3-2.3v-3.3
	c1.1-0.3,2.1-0.6,3.2-1V51.5c-1.1,0.3-2.1,0.7-3.2,1v-3.3c-8.8,2.5-17.9,4.3-27,5.3c-1.2,0.1-2.5,0.3-3.7,0.4
	c-6.7,0.6-13.4,0.8-20.1,0.8h-3.7c-8.9-0.2-17.7-0.9-26.5-1.8l-3.7-0.4l-2.7-0.4V12.1c-9.1-1.1-18.3-2.5-27.5-3.9l-9.2-1.4
	c-4.7-0.7-9.4-1.5-14.1-2.1l-0.5-0.1c-8-1.2-15.9-2.2-23.8-3c-2-0.2-4-0.4-6-0.6c-7-0.6-14-1-21-1c-5.2,0-10.5,0.1-15.7,0.4
	c-3.6,0.2-7.2,0.6-10.9,1C26.2,1.6,25,1.8,23.8,2C18.6,2.7,13.4,3.8,8.3,5.1C5.5,5.8,2.8,6.5,0,7.4v45.8C34.5,43.9,63,45.9,63,45.9z
	"/>
<path class="st0" d="M7.3,46.8c-1.1,0.3-2.2,0.6-3.2,0.9V11.4c1.1-0.3,2.2-0.6,3.2-0.9s2.2-0.5,3.2-0.8s2.1-0.5,3.2-0.8L17,8.3
	c1.1-0.2,2.1-0.4,3.2-0.6l3.2-0.6v6.6l-3.2,0.6c-1.1,0.2-2.1,0.4-3.2,0.6l-3.2,0.7c-1.1,0.2-2.2,0.5-3.2,0.8v6.6
	c1.1-0.3,2.1-0.5,3.2-0.8s2.1-0.5,3.2-0.7s2.1-0.4,3.2-0.6l3.2-0.5v6.6l-3.2,0.5c-1.1,0.2-2.1,0.4-3.2,0.6s-2.1,0.4-3.2,0.7
	s-2.2,0.5-3.2,0.8V46C9.4,46.3,8.4,46.5,7.3,46.8z"/>
<path class="st0" d="M43.9,41.3c-1.1,0-2.2,0.1-3.2,0.2l-3.2,0.2L34.3,42c-1.1,0.1-2.2,0.2-3.2,0.3s-2.1,0.3-3.2,0.4V6.4
	C28.9,6.3,30,6.2,31.1,6s2.1-0.2,3.2-0.3v29.7l3.2-0.3l3.2-0.2c1.1-0.1,2.2-0.1,3.2-0.2l3.2-0.1v6.6L43.9,41.3z"/>
<path class="st0" d="M74.2,41.8l-3.2-0.2V28.4l-3.2-0.2l-3.2-0.1L61.3,28L58,27.9v13.2h-3.2h-3.2V11.4h3.2V8.1H58V4.8l3.2,0.1
	L64.5,5l3.2,0.1l3.2,0.2v3.3c1.1,0.1,2.2,0.1,3.2,0.2v3.3l3.2,0.2V42L74.2,41.8z M67.7,21.6l3.2,0.2v-6.6L67.7,15v-3.3l-3.2-0.1
	l-3.2-0.1v3.3L58,14.7v6.6l3.2,0.1l3.2,0.1L67.7,21.6z"/>
<path class="st0" d="M97.9,44.2l-3.2-0.4l-3.2-0.4l-3.2-0.3L85,42.7v-3.3l-3.2-0.3V9.4L85,9.7V6.4l3.2,0.3l3.2,0.3l3.2,0.4l3.2,0.4
	l3.2,0.4v3.3l3.2,0.4v6.6l-3.2-0.4l-3.2-0.4v-3.3l-3.2-0.4l-3.2-0.4l-3.2-0.4v23.1l3.2,0.3l3.2,0.4l3.2,0.4V31l-3.2-0.4V24l3.2,0.4
	l3.2,0.4l3.2,0.4v16.5l-3.2-0.4v3.3L97.9,44.2z"/>
<path class="st0" d="M124.9,48l-3.2-0.5l-3.2-0.5l-3.2-0.5l-3.2-0.4l-3.2-0.5V9.4l3.2,0.4l3.2,0.5V40l3.2,0.5l3.2,0.5l3.2,0.5
	l3.2,0.5v6.6L124.9,48z"/>
<path class="st0" d="M148.7,51.3l-3.2-0.4l-3.2-0.4L139,50l-3.2-0.5l-3.2-0.5V12.8l3.2,0.4l3.2,0.4l3.2,0.4l3.2,0.4l3.2,0.4l3.2,0.4
	V22l-3.2-0.4l-3.2-0.4l-3.2-0.4l-3.2-0.5v6.6l3.2,0.4l3.2,0.4l3.2,0.4l3.2,0.4v6.6l-3.2-0.4l-3.2-0.4l-3.2-0.4l-3.2-0.4v9.9l3.2,0.4
	l3.2,0.4l3.2,0.4l3.2,0.4v6.6L148.7,51.3z"/>
<path class="st1" d="M83.8,83.4c-1.1-0.1-2.2-0.2-3.2-0.3l-3.2-0.3c-1.1-0.1-2.2-0.2-3.2-0.2l-3.2-0.2l-3.2-0.2V45.9l3.2,0.2
	l3.2,0.2V76c1.1,0.1,2.2,0.2,3.2,0.2l3.2,0.3c1.1,0.1,2.2,0.2,3.2,0.3s2.2,0.2,3.2,0.3v6.6C86,83.7,84.9,83.6,83.8,83.4z"/>
<path class="st1" d="M101.2,85.4L97.9,85l-3.2-0.4l-3.2-0.4v-6.6l3.2,0.4V54.9l-3.2-0.4V48l3.2,0.4l3.2,0.4l3.2,0.4l3.2,0.4v6.6
	l-3.2-0.4v23.1l3.2,0.4v6.6L101.2,85.4z"/>
<path class="st1" d="M137.8,90.6l-3.2-0.4V67.1l-3.2-0.5v3.3l-3.2-0.5v3.3l-3.2-0.5l-3.2-0.5v-3.3l-3.2-0.5v-3.3l-3.2-0.5v23.1
	l-3.2-0.5l-3.2-0.5V50.2l3.2,0.5l3.2,0.5v3.3l3.2,0.5v3.3l3.2,0.5v3.3l3.2,0.5l3.2,0.5v-3.3l3.2,0.5v-3.3l3.2,0.5v-3.3l3.2,0.5
	l3.2,0.5v36.3L137.8,90.6z"/>
<path class="st1" d="M155.1,92.9l-3.2-0.4l-3.2-0.4l-3.2-0.4v-6.6l3.2,0.4V62.4l-3.2-0.4v-6.6l3.2,0.4l3.2,0.4l3.2,0.4l3.2,0.3v6.6
	l-3.2-0.3v23.1l3.2,0.3v6.6L155.1,92.9z"/>
<path class="st1" d="M175.7,94.7c-1.1-0.1-2.1-0.1-3.2-0.2V64.8l-3.2-0.2l-3.2-0.3l-3.2-0.3v-6.6l3.2,0.3l3.2,0.3l3.2,0.2l3.2,0.2
	l3.2,0.2l3.2,0.1l3.2,0.1l3.2,0.1v6.6l-3.2-0.1l-3.2-0.1l-3.2-0.1v29.7L175.7,94.7z"/>
<path class="st1" d="M209.1,94.6l-3.2,0.2c-1.1,0.1-2.1,0.1-3.2,0.2l-3.2,0.1l-3.2,0.1c-1.1,0-2.1,0-3.2,0V58.9c1.1,0,2.1,0,3.2,0
	l3.2-0.1l3.2-0.1c1.1,0,2.1-0.1,3.2-0.2l3.2-0.2l3.2-0.3v6.6l-3.2,0.3l-3.2,0.2c-1.1,0.1-2.1,0.1-3.2,0.2l-3.2,0.1V72l3.2-0.1
	c1.1-0.1,2.1-0.1,3.2-0.2l3.2-0.2l3.2-0.3v6.6l-3.2,0.3l-3.2,0.2c-1.1,0.1-2.1,0.1-3.2,0.2l-3.2,0.1v9.9l3.2-0.1
	c1.1-0.1,2.1-0.1,3.2-0.2l3.2-0.2c1.1-0.1,2.1-0.2,3.2-0.3v6.6C211.3,94.4,210.2,94.5,209.1,94.6z"/>
<path class="st1" d="M236.1,90.3c-1.1,0.3-2.1,0.5-3.2,0.8l-3.2,0.7c-1.1,0.2-2.1,0.4-3.2,0.6l-3.2,0.6c-1.1,0.2-2.1,0.3-3.2,0.5
	s-2.1,0.3-3.2,0.4V57.5c1.1-0.1,2.1-0.3,3.2-0.4l3.2-0.5c1.1-0.2,2.1-0.4,3.2-0.5s2.1-0.4,3.2-0.6s2.1-0.4,3.2-0.7s2.1-0.5,3.2-0.8
	s2.1-0.5,3.2-0.8v3.3c1.1-0.3,2.1-0.6,3.2-0.9v29.7c-1.1,0.3-2.1,0.6-3.2,0.9v3.3C238.3,89.8,237.2,90,236.1,90.3z M232.9,84.4
	c1.1-0.2,2.1-0.5,3.2-0.8V60.6c-1.1,0.3-2.1,0.5-3.2,0.8s-2.1,0.5-3.2,0.7s-2.1,0.4-3.2,0.6s-2.1,0.4-3.2,0.5v23.1l3.2-0.6
	c1.1-0.2,2.1-0.4,3.2-0.6L232.9,84.4z"/>
</svg>
