<svg id="Layer_1" data-name="Layer 1" xmlns="http://www.w3.org/2000/svg" viewBox="0 0 246.6 100"><defs><style>.cls-1{fill:#fff;}.cls-2{fill:#ffb1ad;}</style></defs><path d="M243.38,52.47v-3.3a162,162,0,0,1-27,5.27q-1.84.2-3.69.36c-6.69.61-13.39.84-20.08.78l-3.68,0c-8.85-.21-17.69-.89-26.53-1.85l-3.69-.42L156,52.93V12.1c-9.15-1.12-18.3-2.49-27.46-3.91l-9.2-1.43c-4.7-.73-9.4-1.45-14.1-2.13l-.46-.07C96.82,3.41,88.89,2.37,81,1.57c-2-.2-4-.38-6-.55-7-.59-14-1-21-1C48.76,0,43.54.1,38.32.44c-3.62.24-7.24.58-10.87,1-1.23.16-2.45.33-3.68.51Q16,3.13,8.31,5.05C5.54,5.75,2.77,6.52,0,7.38V89.32c1.07-.34,2.15-.66,3.22-1v3.3c1.7-.48,3.39-.94,5.09-1.36a164.43,164.43,0,0,1,21.9-3.9l.47,0c4.7-.51,9.39-.82,14.09-1q4-.14,8-.12,5.44,0,10.87.27c1.23.06,2.46.12,3.69.2,6.69.39,13.39,1,20.08,1.8l3.69.44c4.54.56,9.08,1.19,13.63,1.85,1.23.17,2.46.36,3.69.54q5.43.81,10.87,1.66l11.23,1.74q5.43.84,10.87,1.63l3.69.53c32.76,4.62,65.52,7.09,98.29-2.32v-3.3c1.07-.31,2.15-.63,3.22-1V51.51C245.53,51.84,244.45,52.16,243.38,52.47Z"/><path class="cls-1" d="M7.28,46.84c-1.08.28-2.15.58-3.23.9V11.44c1.08-.32,2.15-.62,3.23-.9S9.43,10,10.5,9.71s2.15-.52,3.23-.76L17,8.27c1.08-.22,2.15-.42,3.22-.62L23.4,7.1v6.6l-3.23.55c-1.07.2-2.14.4-3.22.62l-3.22.68c-1.08.24-2.15.5-3.23.76v6.6c1.08-.26,2.15-.52,3.23-.76s2.15-.46,3.22-.68,2.15-.42,3.22-.62l3.23-.55v6.6l-3.23.55c-1.07.2-2.14.4-3.22.62s-2.15.44-3.22.68-2.15.5-3.23.76V46C9.43,46.27,8.35,46.55,7.28,46.84Z"/><path class="cls-1" d="M43.94,41.3c-1.07.05-2.15.11-3.22.18l-3.23.23L34.27,42c-1.08.11-2.15.22-3.22.35s-2.15.26-3.23.4V6.45c1.08-.14,2.15-.28,3.23-.4s2.14-.24,3.22-.35V35.4l3.22-.29,3.23-.23c1.07-.07,2.15-.13,3.22-.18l3.22-.13v6.6Z"/><path class="cls-1" d="M74.16,41.8l-3.23-.22V28.39l-3.22-.19-3.23-.14L61.26,28,58,27.88v13.2l-3.23,0H51.59V11.37h3.22V8.06l3.23,0V4.78l3.22.07L64.48,5l3.23.14,3.22.19v3.3c1.08.06,2.15.13,3.23.21v3.3l3.22.24V42ZM67.71,21.6l3.22.19v-6.6L67.71,15V11.7l-3.23-.14-3.22-.11v3.3L58,14.68v6.6l3.22.07,3.22.11Z"/><path class="cls-1" d="M97.92,44.21l-3.22-.4-3.23-.38-3.22-.35L85,42.74v-3.3l-3.23-.31V9.43L85,9.74V6.44l3.22.34,3.22.35,3.23.38,3.22.4,3.23.41v3.3l3.22.43v6.6l-3.22-.43-3.23-.41v-3.3l-3.22-.4-3.23-.38-3.22-.35v23.1l3.22.35,3.23.38,3.22.4V31l-3.22-.4V24l3.22.4,3.23.41,3.22.43v16.5l-3.22-.43v3.3Z"/><path class="cls-1" d="M124.91,48l-3.22-.47L118.46,47l-3.22-.46L112,46.11l-3.23-.45V9.36l3.23.45,3.22.46V40l3.22.46,3.23.47,3.22.47,3.23.47v6.6Z"/><path class="cls-1" d="M148.68,51.26l-3.22-.41-3.23-.43L139,50l-3.23-.45-3.22-.45V12.78l3.22.45,3.23.45,3.22.44,3.23.43,3.22.41,3.22.4V22l-3.22-.4-3.22-.41-3.23-.43L139,20.28v6.6l3.22.44,3.23.43,3.22.41,3.22.4v6.6l-3.22-.4-3.22-.41-3.23-.43L139,33.48v9.9l3.22.44,3.23.43,3.22.41,3.22.4v6.6Z"/><path class="cls-2" d="M23.4,84.23c-1.08.17-2.15.36-3.23.55s-2.14.4-3.22.62-2.15.44-3.22.68-2.15.49-3.23.76-2.15.54-3.22.82v-3.3c-1.08.29-2.15.59-3.23.9v-33c1.08-.31,2.15-.61,3.23-.9s2.15-.56,3.22-.82v29.7c1.08-.27,2.15-.52,3.23-.76S15.88,79,17,78.8s2.15-.43,3.22-.62,2.15-.38,3.23-.55V47.93c1.07-.17,2.15-.34,3.22-.49s2.15-.29,3.23-.42V80c-1.08.13-2.15.27-3.23.42v3.3C25.55,83.89,24.47,84.06,23.4,84.23Z"/><path class="cls-2" d="M60.06,82c-1.07,0-2.15,0-3.22,0V78.6c-1.08,0-2.15,0-3.23,0v-3.3c-1.07,0-2.15,0-3.22,0V72l-3.22.08V68.8l-3.23.13v-6.6c-1.07.05-2.15.11-3.22.18v19.8l-3.23.23c-1.07.09-2.15.18-3.22.29V46.53c1.07-.11,2.15-.2,3.22-.29L40.72,46v3.3c1.07-.07,2.15-.13,3.22-.18v3.3l3.23-.13v3.3l3.22-.08v3.3c1.07,0,2.15,0,3.22,0v6.6c1.08,0,2.15,0,3.23,0V45.6c1.07,0,2.15,0,3.22,0s2.15.05,3.22.09V82C62.21,82,61.14,82,60.06,82Z"/><path class="cls-2" d="M83.83,83.45c-1.08-.11-2.15-.21-3.23-.3l-3.22-.28c-1.07-.09-2.15-.17-3.22-.24l-3.23-.22-3.22-.18V45.93l3.22.18,3.23.22V76c1.07.07,2.15.15,3.22.24l3.22.28c1.08.09,2.15.19,3.23.3s2.15.21,3.22.33v6.6C86,83.66,84.9,83.55,83.83,83.45Z"/><path class="cls-2" d="M101.15,85.45,97.92,85l-3.22-.4-3.23-.38v-6.6L94.7,78V54.94l-3.23-.38V48l3.23.38,3.22.4,3.23.41,3.22.43v6.6l-3.22-.43v23.1l3.22.43v6.6Z"/><path class="cls-2" d="M137.81,90.64l-3.23-.45V67.09l-3.22-.46v3.3l-3.22-.46v3.3l-3.23-.47-3.22-.47v-3.3l-3.22-.47v-3.3l-3.23-.46V87.4L112,86.94l-3.23-.46V50.18l3.23.46,3.22.46v3.3l3.23.46v3.3l3.22.47v3.3l3.22.47,3.23.47v-3.3l3.22.46v-3.3l3.22.46v-3.3l3.23.45,3.22.45v36.3Z"/><path class="cls-2" d="M155.13,92.87l-3.23-.38-3.22-.4-3.22-.41v-6.6l3.22.41V62.39L145.46,62v-6.6l3.22.41,3.22.4,3.23.38,3.22.35v6.6l-3.22-.35v23.1l3.22.35v6.6Z"/><path class="cls-2" d="M175.67,94.71c-1.07-.06-2.15-.13-3.22-.21V64.8l-3.23-.24L166,64.28l-3.22-.3v-6.6l3.22.3,3.22.28,3.23.24,3.22.22,3.23.18,3.22.14,3.22.11,3.23.07v6.6l-3.23-.07-3.22-.11-3.22-.14V94.9Z"/><path class="cls-2" d="M209.11,94.58l-3.22.24c-1.08.07-2.15.13-3.23.18l-3.22.13-3.23.08c-1.07,0-2.15,0-3.22,0V58.94c1.07,0,2.15,0,3.22,0l3.23-.08,3.22-.13c1.08-.05,2.15-.11,3.23-.18l3.22-.23,3.22-.29v6.6l-3.22.29-3.22.23c-1.08.07-2.15.13-3.23.18l-3.22.13V72l3.22-.13c1.08-.05,2.15-.11,3.23-.18l3.22-.23,3.22-.29v6.6l-3.22.29-3.22.23c-1.08.07-2.15.13-3.23.18l-3.22.13v9.9l3.22-.13c1.08-.05,2.15-.11,3.23-.18l3.22-.24c1.07-.08,2.15-.18,3.22-.28v6.6C211.26,94.4,210.18,94.5,209.11,94.58Z"/><path class="cls-2" d="M236.1,90.29c-1.08.26-2.15.52-3.22.76l-3.23.68c-1.07.22-2.15.42-3.22.62l-3.23.55c-1.07.17-2.14.33-3.22.48s-2.15.3-3.22.43V57.51c1.07-.13,2.15-.27,3.22-.42l3.22-.49c1.08-.17,2.15-.36,3.23-.55s2.15-.4,3.22-.62,2.15-.44,3.23-.68,2.14-.5,3.22-.76,2.15-.54,3.22-.83v3.3c1.08-.28,2.15-.58,3.23-.9v29.7c-1.08.32-2.15.62-3.23.9v3.3C238.25,89.75,237.17,90,236.1,90.29Zm-3.22-5.84c1.07-.24,2.14-.5,3.22-.76V60.59c-1.08.26-2.15.52-3.22.76s-2.15.46-3.23.68-2.15.42-3.22.62-2.15.38-3.23.55V86.3l3.23-.55c1.07-.2,2.15-.4,3.22-.62Z"/></svg>